<?xml version="1.0" standalone="no"?>
<!DOCTYPE svg PUBLIC "-//W3C//DTD SVG 20010904//EN"
 "http://www.w3.org/TR/2001/REC-SVG-20010904/DTD/svg10.dtd">
<svg version="1.0" xmlns="http://www.w3.org/2000/svg"
 width="463.000000pt" height="463.000000pt" viewBox="0 0 463.000000 463.000000"
 preserveAspectRatio="xMidYMid meet">
<metadata>
Created by potrace 1.11, written by Peter Selinger 2001-2013
</metadata>
<g transform="translate(0.000000,463.000000) scale(0.100000,-0.100000)"
fill="#000000" stroke="none">
<path d="M2377 4624 c-3 -3 -41 -7 -85 -8 -43 0 -85 -6 -93 -12 -22 -17 -113
-68 -121 -69 -7 0 -17 -17 -66 -110 -9 -16 -22 -37 -30 -45 -8 -8 -11 -15 -6
-17 5 -2 7 -40 4 -85 -3 -48 -1 -86 5 -92 6 -6 16 -24 23 -41 8 -16 21 -41 30
-55 16 -24 18 -29 21 -50 0 -5 7 -7 14 -4 8 3 20 -3 28 -12 16 -19 20 -106 6
-115 -6 -4 -6 -12 -1 -20 12 -19 13 -131 1 -146 -6 -9 -6 -17 1 -25 5 -7 9
-31 8 -53 -1 -39 -2 -40 -38 -41 -20 0 -43 -5 -50 -12 -7 -6 -45 -16 -83 -23
-39 -7 -72 -16 -75 -19 -10 -13 -126 -54 -142 -52 -10 2 -18 -1 -18 -7 0 -5
-21 -21 -47 -35 -36 -21 -48 -24 -55 -14 -4 7 -6 19 -3 26 2 6 0 12 -5 12 -16
0 -69 63 -91 108 -11 23 -24 42 -28 42 -10 0 -72 87 -75 104 -1 7 -16 28 -34
45 -40 41 -49 74 -29 105 9 13 13 27 10 30 -4 4 -8 26 -10 49 -2 23 -7 54 -12
69 -6 17 -6 28 0 30 10 3 3 13 -67 96 -20 23 -33 42 -29 42 4 0 2 7 -5 15 -7
8 -15 13 -19 10 -4 -2 -29 7 -56 20 -27 14 -54 25 -62 25 -7 0 -13 5 -13 10 0
6 -15 8 -37 5 -21 -3 -63 -7 -93 -8 -45 -3 -66 -11 -114 -43 -32 -21 -68 -45
-80 -51 -11 -7 -20 -18 -18 -24 1 -6 -2 -16 -7 -23 -18 -22 -70 -129 -66 -136
2 -4 5 -44 6 -89 2 -44 6 -81 11 -81 5 0 14 -12 20 -27 7 -16 22 -41 34 -58
11 -16 24 -39 28 -49 3 -10 9 -16 12 -13 3 3 27 -8 54 -24 26 -16 55 -29 64
-29 9 0 16 -6 16 -14 0 -10 11 -12 44 -9 40 5 46 3 67 -27 13 -17 25 -36 25
-41 1 -5 2 -14 3 -20 0 -5 5 -8 10 -5 10 7 81 -95 81 -117 0 -9 7 -17 15 -17
8 0 20 -10 26 -22 7 -13 23 -36 35 -51 13 -16 24 -37 24 -48 0 -10 6 -19 13
-19 6 0 20 -12 31 -26 18 -25 18 -27 -1 -52 -11 -15 -26 -27 -34 -27 -8 0 -15
-9 -17 -19 -5 -25 -78 -123 -98 -130 -8 -3 -13 -10 -10 -15 6 -10 -39 -97 -56
-107 -7 -4 -8 -2 -4 4 4 7 4 12 -1 13 -29 2 -144 48 -153 61 -6 7 -150 -8
-158 -17 -3 -3 -11 0 -18 6 -11 9 -15 7 -20 -5 -4 -9 -23 -25 -43 -35 -20 -11
-44 -28 -55 -40 -10 -11 -23 -18 -27 -15 -5 3 -12 -3 -15 -13 -3 -10 -17 -41
-30 -70 -13 -28 -24 -56 -24 -62 0 -5 -4 -11 -9 -13 -5 -2 -6 -36 -1 -83 4
-43 6 -85 3 -91 -2 -7 3 -21 12 -31 22 -24 79 -106 81 -115 1 -5 2 -13 3 -19
0 -5 5 -8 9 -5 9 5 143 -60 136 -67 -2 -2 32 -3 77 -1 67 2 80 1 75 -12 -3 -7
-1 -14 4 -14 5 0 8 -39 7 -90 -1 -49 1 -90 4 -90 10 0 27 -135 17 -139 -5 -1
-2 -11 7 -21 16 -17 13 -19 -40 -35 -32 -9 -64 -14 -73 -10 -8 3 -19 0 -23 -6
-10 -17 -137 -49 -142 -36 -1 5 -10 2 -19 -7 -9 -9 -25 -16 -36 -16 -20 0
-116 50 -97 50 6 0 3 4 -5 10 -9 5 -17 5 -20 0 -4 -6 -18 -6 -36 -2 -16 5 -45
8 -64 8 -19 -1 -38 3 -41 8 -4 5 -23 -1 -42 -13 -19 -11 -40 -21 -47 -21 -6 0
-25 -9 -41 -21 -16 -11 -33 -17 -39 -14 -6 3 -13 -2 -17 -12 -6 -16 -55 -86
-86 -123 -6 -8 -13 -26 -14 -40 -1 -14 -4 -47 -7 -75 -2 -27 -7 -58 -11 -67
-4 -10 -3 -18 3 -18 5 0 13 -12 17 -27 3 -15 15 -44 25 -66 11 -22 17 -44 14
-48 -3 -5 3 -12 13 -16 10 -3 35 -20 55 -37 72 -60 86 -69 109 -71 41 -4 113
-15 133 -21 10 -3 21 -2 25 2 3 5 38 20 76 33 71 25 105 52 152 121 14 19 28
34 31 33 4 -1 6 6 5 16 -2 15 11 22 57 35 33 10 65 14 71 11 6 -4 18 0 27 8
22 19 98 40 141 38 19 -1 31 2 27 6 -3 4 12 13 36 20 48 14 68 5 68 -33 0 -13
6 -24 13 -24 15 0 87 -95 87 -116 0 -8 8 -18 17 -21 26 -9 107 -96 104 -111
-1 -6 6 -12 16 -12 9 0 29 -12 44 -26 30 -28 29 -58 -3 -75 -10 -5 -16 -14
-14 -18 8 -12 -53 -121 -70 -128 -8 -3 -14 -14 -14 -24 0 -26 -57 -126 -76
-133 -8 -3 -13 -10 -9 -16 3 -5 -6 -30 -21 -56 -22 -38 -31 -45 -51 -41 -13 2
-30 -1 -36 -7 -7 -6 -29 -20 -51 -31 -83 -43 -94 -51 -105 -75 -12 -27 -54
-99 -68 -115 -14 -17 -11 -199 4 -208 7 -4 13 -15 13 -23 0 -8 10 -31 23 -52
13 -20 27 -46 30 -56 4 -10 10 -16 13 -13 4 3 15 -2 26 -12 10 -10 36 -27 56
-37 20 -11 40 -23 44 -29 4 -5 24 -10 45 -11 21 0 61 -3 88 -4 40 -3 63 3 120
30 70 34 75 36 96 39 6 0 9 7 6 15 -3 8 -2 16 2 18 13 5 88 113 89 128 1 8 3
43 5 76 3 34 7 66 10 71 4 5 -3 29 -15 52 -17 36 -19 45 -8 71 7 17 19 30 26
30 8 0 14 8 14 18 0 25 49 114 73 134 12 9 18 20 14 24 -7 7 48 112 69 129 6
6 14 21 17 35 4 14 13 34 21 45 14 19 16 19 48 3 18 -9 66 -24 106 -33 39 -10
72 -20 72 -24 0 -5 20 -8 45 -9 61 0 125 -12 125 -22 0 -9 26 -8 35 1 5 6 123
1 142 -6 6 -2 25 0 42 5 16 4 32 6 35 3 7 -8 -45 -69 -56 -66 -4 2 -9 -3 -9
-10 -4 -41 -33 -157 -39 -157 -4 0 -7 -7 -7 -15 0 -8 3 -15 6 -15 4 0 15 -38
26 -84 10 -47 21 -84 24 -83 9 2 105 -97 103 -105 -1 -5 3 -8 8 -8 17 0 19 0
62 -16 24 -9 54 -18 68 -20 13 -3 29 -9 36 -15 6 -5 14 -6 18 -2 8 8 107 33
141 35 11 1 25 7 30 14 6 6 35 33 65 60 48 41 58 58 83 128 34 94 33 82 13
169 -8 38 -15 72 -14 75 2 20 -3 32 -12 27 -5 -3 -10 -2 -10 3 0 5 -17 29 -38
53 -21 24 -41 52 -45 62 -4 10 -11 16 -16 13 -15 -10 -39 4 -44 25 -4 16 2 24
26 34 21 9 34 10 38 3 4 -6 12 -2 20 10 14 19 113 75 136 76 7 1 18 8 25 17
32 41 125 84 103 48 -4 -5 2 -12 12 -15 30 -11 112 -96 106 -110 -3 -9 2 -14
13 -14 24 0 118 -95 109 -109 -5 -10 6 -15 26 -13 13 2 99 -97 99 -113 0 -9 6
-15 14 -13 16 4 106 -81 106 -100 0 -7 8 -15 18 -19 35 -12 38 -21 32 -85 -5
-45 -3 -67 7 -76 7 -7 13 -20 13 -28 0 -15 17 -48 37 -74 11 -15 13 -20 13
-40 0 -5 6 -10 13 -10 6 0 28 -14 47 -30 19 -16 40 -30 47 -30 7 0 16 -8 21
-17 8 -13 28 -17 88 -20 43 -2 84 -9 90 -14 9 -7 16 -5 23 8 6 10 11 15 11 11
0 -9 79 20 100 37 8 7 21 10 27 8 7 -3 16 4 20 14 4 10 20 32 35 48 15 17 28
33 28 37 0 4 9 16 21 26 11 11 19 26 18 33 -1 8 1 25 5 39 3 14 8 41 9 60 2
19 7 42 12 50 5 9 4 15 -3 18 -7 2 -12 11 -12 20 0 10 -10 37 -21 62 -12 25
-22 54 -23 65 -1 11 -7 19 -13 18 -7 -2 -20 8 -30 20 -10 13 -35 34 -55 48
-21 14 -35 29 -31 32 3 4 2 7 -3 8 -81 7 -159 22 -166 32 -4 7 -12 6 -23 -3
-14 -11 -21 -8 -56 26 -23 21 -45 49 -50 62 -5 13 -13 21 -17 18 -10 -6 -97
82 -106 107 -3 10 -10 16 -14 13 -10 -6 -97 81 -106 107 -3 10 -10 16 -14 13
-11 -7 -115 98 -106 107 4 3 -4 11 -17 16 -36 14 -83 67 -75 86 3 9 10 13 16
10 5 -3 11 -1 11 4 1 6 2 14 3 19 4 21 69 121 82 126 9 3 14 12 11 19 -5 15
37 114 59 139 9 9 13 21 10 26 -3 5 0 25 6 45 10 31 16 37 39 37 15 0 31 -5
34 -10 5 -8 11 -8 20 0 8 7 49 10 102 9 48 -1 93 0 98 2 11 4 85 -63 85 -78 1
-10 190 -72 190 -61 0 4 10 8 22 8 48 0 143 26 164 45 65 60 95 86 101 88 5 1
8 7 9 12 1 6 9 27 18 48 9 21 19 51 23 68 3 16 9 29 14 29 5 0 9 7 9 15 0 8
-3 15 -7 15 -7 0 -14 51 -17 128 -1 21 -7 34 -18 38 -10 3 -18 10 -18 15 0 15
-84 119 -97 119 -7 0 -44 15 -83 34 -39 18 -73 30 -75 25 -3 -4 -13 -7 -23 -7
-42 1 -146 -12 -151 -19 -3 -5 -22 -20 -41 -33 -19 -13 -37 -27 -40 -31 -3 -4
-18 -12 -33 -18 -18 -7 -25 -15 -21 -26 5 -13 -11 -15 -115 -14 l-121 2 0 33
c0 18 5 36 10 39 7 4 8 11 1 18 -5 7 -12 30 -15 52 -3 22 -9 52 -12 68 -3 17
-1 27 6 27 7 0 6 9 -4 28 -20 36 -47 142 -35 142 4 0 6 7 2 15 -3 9 -8 13 -11
10 -8 -8 -55 116 -53 143 0 13 -3 21 -8 18 -4 -3 -14 7 -22 22 -7 15 -24 43
-36 63 -12 20 -19 40 -15 44 4 4 0 12 -8 18 -33 25 -70 85 -64 101 4 10 13 15
21 12 8 -4 17 4 24 21 13 34 67 91 97 103 12 5 21 14 20 18 -2 5 18 31 43 58
46 50 51 54 69 54 5 0 7 6 4 14 -4 11 3 14 33 12 21 -1 52 1 70 5 18 4 33 3
35 -3 2 -5 13 -1 25 9 25 21 115 77 126 77 7 1 32 43 61 104 8 18 23 40 32 49
9 10 13 18 8 20 -5 2 -8 44 -7 93 1 50 -2 88 -6 85 -5 -3 -11 6 -15 18 -3 13
-16 40 -30 59 -13 20 -26 44 -28 54 -1 10 -7 16 -12 15 -5 -2 -12 3 -17 11 -5
7 -12 13 -16 14 -4 0 -33 13 -63 27 -30 15 -61 27 -68 27 -7 0 -10 5 -6 11 4
8 -3 9 -22 5 -16 -3 -62 -7 -101 -8 -40 -2 -73 -6 -73 -9 0 -5 -67 -52 -123
-85 -10 -6 -17 -13 -16 -15 1 -2 -9 -23 -24 -46 -14 -23 -29 -53 -33 -67 -3
-14 -10 -26 -14 -26 -4 0 -6 -34 -5 -76 3 -71 2 -76 -21 -86 -13 -6 -21 -15
-18 -19 6 -11 -87 -110 -98 -103 -4 3 -12 -3 -16 -14 -9 -26 -75 -98 -102
-112 -11 -6 -18 -15 -15 -21 21 -33 -77 27 -112 70 -12 14 -22 20 -23 13 0
-13 -107 41 -127 65 -6 8 -17 13 -25 11 -18 -4 -138 42 -138 54 0 5 -10 7 -22
6 -32 -4 -148 23 -148 34 0 5 -13 7 -29 3 l-30 -6 4 58 c1 32 4 63 5 68 1 6 1
12 0 15 -7 13 -5 150 2 150 4 0 8 7 8 15 0 8 -4 15 -9 15 -5 0 -8 16 -7 35 1
33 33 75 56 75 6 0 14 10 19 23 5 12 22 49 37 82 22 49 27 71 24 120 -2 33 -4
75 -4 94 -1 19 -7 36 -14 39 -6 2 -12 8 -12 14 0 5 -15 30 -32 56 -18 26 -32
50 -31 53 1 3 -30 21 -70 40 -40 19 -78 40 -85 47 -15 14 -17 14 -25 6z"/>
</g>
</svg>
